<svg width="146" height="216" viewBox="0 0 146 216" fill="none" xmlns="http://www.w3.org/2000/svg">
    <g opacity="0.1">
        <path
            d="M44.6342 166.459L41.3062 177.504C40.155 181.324 42.3389 185.392 46.1594 186.543L75.7508 195.46C79.5712 196.611 83.639 194.427 84.7902 190.607L94.4812 158.445L50.9972 145.342"
            stroke="white" stroke-width="3.62742" stroke-miterlimit="10" />
        <path
            d="M154.523 81.1423C150.758 96.9047 141.14 109.464 128.678 117.377C119.776 123.03 113.31 131.916 110.254 142.058L108.915 146.504C107.052 152.686 101.578 157.022 95.1215 157.577C78.3174 159.03 62.945 154.474 48.9008 143.498C43.8746 139.559 41.7285 132.851 43.5914 126.669L44.8891 122.362C47.966 112.151 47.4165 101.15 43.0713 91.4303C37.4995 78.992 36.2524 64.523 40.4805 50.4914C50.2971 17.9131 85.8344 0.0559273 118.166 12.4503C146.109 23.0673 161.417 52.2295 154.523 81.1423Z"
            stroke="white" stroke-width="3.62742" stroke-miterlimit="10" />
        <path d="M87.632 179.415L65.4037 172.718" stroke="white" stroke-width="3.62742" stroke-miterlimit="10" />
        <path d="M65.1568 204.467L55.0846 201.432C50.6389 200.092 48.3664 194.558 49.999 189.14" stroke="white"
            stroke-width="3.62742" stroke-miterlimit="10" />
        <path
            d="M73.9639 110.362L62.294 106.845C58.7514 105.778 56.7616 102.072 57.8291 98.5291L61.2617 87.1371C62.3292 83.5944 66.0353 81.6046 69.578 82.6721L74.9266 84.2838C78.4692 85.3512 80.4591 89.0574 79.3917 92.6L74.0333 110.383L73.9639 110.362Z"
            stroke="white" stroke-width="3.62742" stroke-miterlimit="10" />
        <path d="M77.2501 99.4561L61.3426 152.248" stroke="white" stroke-width="3.62742" stroke-miterlimit="10" />
        <path
            d="M90.9825 115.49L102.722 119.027C106.264 120.095 109.971 118.105 111.038 114.562L114.471 103.17C115.538 99.6276 113.548 95.9214 110.006 94.854L104.657 93.2423C101.114 92.1748 97.4083 94.1646 96.3408 97.7072L90.9825 115.49Z"
            stroke="white" stroke-width="3.62742" stroke-miterlimit="10" />
        <path d="M94.2686 104.584L83.51 140.288" stroke="white" stroke-width="3.62742" stroke-miterlimit="10" />
        <path d="M71.4631 109.608L95.9837 116.997" stroke="white" stroke-width="3.62742" stroke-miterlimit="10" />
    </g>
</svg>