<svg width="105" height="105" viewBox="0 0 105 105" fill="none" xmlns="http://www.w3.org/2000/svg">
<path d="M22.9651 93.0669L19.2819 96.7501L2.5625 102.875L8.68745 86.1557L77.7998 17.0434C79.3724 15.4707 81.9796 15.4707 83.5522 17.0434L88.3942 21.8853C89.9668 23.458 89.9668 26.0652 88.3942 27.6378L32.318 83.714" stroke="#426173" stroke-width="2.06923" stroke-miterlimit="10"/>
<path d="M8.646 86.1556C10.8394 90.9976 14.3985 94.5567 19.2405 96.7501" stroke="#426173" stroke-width="2.06923" stroke-miterlimit="10"/>
<path d="M97.9953 18.0366L87.4009 7.44205L91.6635 3.17946C93.2361 1.60685 95.8433 1.60685 97.4159 3.17946L102.258 8.02144C103.831 9.59406 103.831 12.2013 102.258 13.7739L97.9953 18.0366Z" stroke="#426173" stroke-width="2.06923" stroke-miterlimit="10"/>
<path d="M83.6763 10.4631L95.4709 22.2578" stroke="#426173" stroke-width="2.06923" stroke-miterlimit="10"/>
<path d="M84.2556 17.7468L11.2532 90.7493" stroke="#426173" stroke-width="2.06923" stroke-miterlimit="10"/>
</svg>
