<svg width="24" height="24" viewBox="0 0 20 21" fill="none" xmlns="http://www.w3.org/2000/svg">
    <g id="refresh-ccw" opacity="0.8" clip-path="url(#clip0_6_2369)">
        <path id="Vector" d="M0.833374 3.83337V8.83337H5.83337" stroke="white" stroke-width="2" stroke-linecap="round"
            stroke-linejoin="round" />
        <path id="Vector_2" d="M19.1666 17.1666V12.1666H14.1666" stroke="white" stroke-width="2" stroke-linecap="round"
            stroke-linejoin="round" />
        <path id="Vector_3"
            d="M17.075 7.99998C16.6524 6.80564 15.9341 5.73782 14.9872 4.89616C14.0402 4.05451 12.8955 3.46645 11.6598 3.18686C10.4241 2.90727 9.13775 2.94527 7.92072 3.29729C6.70369 3.64932 5.59566 4.30391 4.70004 5.19998L0.833374 8.83331M19.1667 12.1666L15.3 15.8C14.4044 16.6961 13.2964 17.3506 12.0794 17.7027C10.8623 18.0547 9.57596 18.0927 8.34028 17.8131C7.1046 17.5335 5.95987 16.9455 5.01293 16.1038C4.06599 15.2621 3.34768 14.1943 2.92504 13"
            stroke="white" stroke-width="2" stroke-linecap="round" stroke-linejoin="round" />
    </g>
    <defs>
        <clipPath id="clip0_6_2369">
            <rect width="24" height="24" fill="white" transform="translate(0 0.5)" />
        </clipPath>
    </defs>
</svg>