<svg width="107" height="106" viewBox="0 0 107 106" fill="none" xmlns="http://www.w3.org/2000/svg">
<path d="M27.4121 96.5483L2.18329 104.07L9.70536 78.8416C25.2568 76.0103 30.497 82.476 27.4121 96.5483Z" stroke="#426173" stroke-width="2.11296" stroke-miterlimit="10"/>
<path d="M105 2.05641C104.746 44.3157 66.7554 78.419 55.9792 87.2511C54.4156 88.5189 52.1336 88.4344 50.6968 86.9976L35.1877 71.4884L19.6786 55.9793C18.2417 54.5425 18.1149 52.2605 19.425 50.6969C28.2571 39.9207 62.3604 1.92965 104.62 1.67609C104.789 1.63383 105 1.84512 105 2.05641Z" stroke="#426173" stroke-width="2.11296" stroke-miterlimit="10"/>
<path d="M76.0524 43.048C82.8908 43.048 88.4344 37.5044 88.4344 30.666C88.4344 23.8276 82.8908 18.2841 76.0524 18.2841C69.214 18.2841 63.6705 23.8276 63.6705 30.666C63.6705 37.5044 69.214 43.048 76.0524 43.048Z" stroke="#426173" stroke-width="2.11296" stroke-miterlimit="10"/>
<path d="M51.6689 87.9694L18.6221 54.9227C17.6924 53.993 16.3824 53.6126 15.1146 53.8239L14.2272 53.9929C11.1 54.5846 9.91671 58.4302 12.1564 60.6699L45.9217 94.4351C48.1614 96.6748 52.0492 95.4916 52.5986 92.3644L52.7677 91.4769C53.0212 90.2092 52.5986 88.8991 51.6689 87.9694Z" stroke="#426173" stroke-width="2.11296" stroke-miterlimit="10"/>
<path d="M29.7363 39.2446C37.0049 56.0216 49.5558 68.5726 67.3892 76.8976" stroke="#426173" stroke-width="2.11296" stroke-miterlimit="10"/>
<path d="M75.6721 87.2933L59.0642 103.901" stroke="#426173" stroke-width="2.11296" stroke-miterlimit="10"/>
<path d="M58.9374 95.6608L50.6124 104.028" stroke="#426173" stroke-width="2.11296" stroke-miterlimit="10"/>
<path d="M15.6216 35.0187L1 49.5981" stroke="#426173" stroke-width="2.11296" stroke-miterlimit="10"/>
<path d="M25.6794 32.7789L19.2137 39.2446" stroke="#426173" stroke-width="2.11296" stroke-miterlimit="10"/>
<path d="M70.0516 1L66.6709 4.38074" stroke="#426173" stroke-width="2.11296" stroke-miterlimit="10"/>
<path d="M92.4068 60.6702L89.0261 64.0509" stroke="#426173" stroke-width="2.11296" stroke-miterlimit="10"/>
</svg>
